<svg viewBox="0 0 256 256" xml:space="preserve">
<g><g><g><path fill="#000000" d="M67.4,68.5c-1,0.2-2.8,1.1-3.9,1.9C62.4,71.2,50.1,83.2,36.4,97C10.3,123.2,10,123.5,10,128.1c0,4.6,0.2,4.8,27.2,31.9c14.3,14.2,26.8,26.4,27.9,26.9c3,1.5,7.2,1.3,10.3-0.5c3-1.8,4.8-4.4,5.2-7.8c0.7-5.2,0.7-5.2-22.7-28.7l-21.7-21.7l21.7-21.8c23.4-23.5,23.4-23.5,22.7-28.7c-0.5-3.4-2.2-6-5-7.6C72.8,68.4,70,67.9,67.4,68.5z"/><path fill="#000000" d="M145.3,68.5c-3.7,1.1-5.4,2.8-7.9,7.8c-1.4,2.7-12.5,25.7-24.6,51.2c-21.6,45.3-22.1,46.4-22.1,49.8c0,4.2,1.9,7.5,5.5,9.3c4.5,2.3,9.6,1.5,12.9-2.1c0.8-0.9,11.9-23.2,25.6-51.9c23.5-49.1,24-50.3,24-53.7c0-2.5-0.3-3.9-1.3-5.5C155,69.7,149.1,67.3,145.3,68.5z"/><path fill="#000000" d="M183.9,68.4c-4.7,1.2-8,4.7-8.5,9.3c-0.6,5.1-0.5,5.2,22.8,28.5l21.7,21.8l-21.7,21.7c-23.4,23.5-23.4,23.5-22.7,28.7c0.5,3.4,2.2,6,5.2,7.8c3,1.7,7.3,2,10.3,0.5c1.1-0.5,13.4-12.4,27.4-26.4c26.1-26,27.6-27.9,27.7-32c0-4.9,0.1-4.8-27.2-32.2c-14.3-14.2-26.6-26.3-27.6-26.7C189,68.4,186,67.9,183.9,68.4z"/></g></g></g>
</svg>
